<?xml version="1.0" encoding="UTF-8"?>
<svg version="1.1" xmlns="http://www.w3.org/2000/svg" width="500" height="500">
<path d="M0 0 C165 0 330 0 500 0 C500 165 500 330 500 500 C335 500 170 500 0 500 C0 335 0 170 0 0 Z " fill="#000000" transform="translate(0,0)"/>
<path d="M0 0 C0.99 0 1.98 0 3 0 C1.5936712 4.51772905 -0.19199092 8.74742763 -2.23828125 13.00390625 C-2.89454335 14.38557368 -3.55079282 15.76724711 -4.20703125 17.14892578 C-4.72257568 18.2293515 -4.72257568 18.2293515 -5.24853516 19.331604 C-13.09202572 35.77764713 -20.59974055 52.34941625 -28 69 C-16.12 68.67 -4.24 68.34 8 68 C11.86102703 60.56677973 11.86102703 60.56677973 15.71826172 53.1315918 C16.20053223 52.20515869 16.68280273 51.27872559 17.1796875 50.32421875 C17.67194824 49.37635498 18.16420898 48.42849121 18.67138672 47.4519043 C20 45 20 45 22 42 C22.99 42 23.98 42 25 42 C24.39368083 45.96149465 23.15202596 48.98723529 21.27734375 52.51953125 C20.47006836 54.0519043 20.47006836 54.0519043 19.64648438 55.61523438 C18.80053711 57.19788086 18.80053711 57.19788086 17.9375 58.8125 C17.36966797 59.88693359 16.80183594 60.96136719 16.21679688 62.06835938 C14.81685582 64.71530675 13.41109888 67.35898899 12 70 C12.55461914 69.99476318 13.10923828 69.98952637 13.68066406 69.98413086 C16.20376443 69.96328969 18.72684664 69.95031718 21.25 69.9375 C22.12269531 69.92912109 22.99539063 69.92074219 23.89453125 69.91210938 C24.73886719 69.90888672 25.58320313 69.90566406 26.453125 69.90234375 C27.22817383 69.89710693 28.00322266 69.89187012 28.80175781 69.88647461 C31 70 31 70 32.9465332 70.62133789 C35.87709243 71.16173705 37.6550588 70.26144992 40.40234375 69.15625 C41.97665161 68.52819458 41.97665161 68.52819458 43.58276367 67.88745117 C44.68982666 67.42959229 45.79688965 66.9717334 46.9375 66.5 C48.62806519 65.81031128 48.62806519 65.81031128 50.3527832 65.10668945 C67.71332601 58.38888185 67.71332601 58.38888185 81 46 C81.43027777 42.62949083 81.49122365 40.75916382 79.625 37.875 C63.38029067 26.27163619 37.40283622 27.20621668 18.5625 29.8125 C12.17807621 31.02655931 6.02494852 32.4511053 0.625 36.1875 C-2 38 -2 38 -5 38 C-3.16832434 33.38652815 -0.4287445 32.22593318 3.94262695 30.24658203 C13.88780964 26.19163491 24.0252169 25.51630521 34.62817383 25.60888672 C36.80028804 25.62490992 38.97052131 25.60897649 41.14257812 25.58984375 C55.59882456 25.56830763 74.06164553 26.41449567 85 37 C86.63023814 40.26047629 86.4673535 42.37801035 86 46 C73.86859964 67.47643667 33.99389803 75.74265613 12 82 C14.17105566 84.17105566 14.97212982 84.41316123 17.8671875 85.078125 C18.65988037 85.26624756 19.45257324 85.45437012 20.26928711 85.64819336 C21.12917236 85.84678955 21.98905762 86.04538574 22.875 86.25 C30.80706686 88.15492549 38.61538055 90.30755174 46.41430664 92.69604492 C52.52559668 94.56601969 58.66049428 96.33160425 64.8125 98.0625 C71.15653073 99.86225416 77.4782994 101.71095131 83.75 103.75 C85.53664063 104.33007812 85.53664063 104.33007812 87.359375 104.921875 C90 106 90 106 91 108 C82.25249354 106.44776225 73.81201049 104.12683546 65.3125 101.5625 C53.55911656 98.01923214 41.7659613 94.63455941 29.94467163 91.32492065 C27.98381421 90.77560583 26.02338316 90.22476673 24.06338501 89.6723938 C21.29336691 88.89214879 18.52193126 88.11716686 15.75 87.34375 C14.91055344 87.10663803 14.07110687 86.86952606 13.20622253 86.62522888 C10.05728333 85.75224449 7.28428583 85 4 85 C-2.5171306 97.91711144 -8.92247884 110.86976805 -15 124 C-15.99 124 -16.98 124 -18 124 C-15.425744 115.17257043 -11.35823721 107.15942153 -7.3125 98.9375 C-6.60300307 97.48527634 -5.8940144 96.03280426 -5.18554688 94.58007812 C-3.46287943 91.05049308 -1.73336237 87.52434431 0 84 C-0.99 83.67 -1.98 83.34 -3 83 C-3 82.01 -3 81.02 -3 80 C-1.35 80 0.3 80 2 80 C3.32 77.36 4.64 74.72 6 72 C-5.88 71.67 -17.76 71.34 -30 71 C-30.99 73.97 -31.98 76.94 -33 80 C-33.83900388 82.1933603 -34.69175602 84.38154565 -35.5625 86.5625 C-38.36653189 93.81751021 -40.3262459 100.17009834 -40 108 C-41.98 107.01 -41.98 107.01 -44 106 C-44.39281441 99.41280457 -43.15050787 94.60414859 -40.75 88.5 C-40.44964844 87.69691406 -40.14929688 86.89382813 -39.83984375 86.06640625 C-37.8600477 80.86838853 -35.5593354 75.93747891 -33 71 C-36.73716095 70.69367533 -38.56021243 70.65982303 -42 72 C-45.66612941 75.50762172 -48.71071482 79.37330861 -51.77783203 83.40527344 C-63.22166122 98.33757313 -78.08653805 112.44831716 -96 119 C-96.7940625 119.31582031 -97.588125 119.63164062 -98.40625 119.95703125 C-109.16217415 123.78097181 -121.40706812 123.05990911 -132 119 C-138.10254421 115.90575223 -144.30117507 112.55428911 -147 106 C-147.89841776 101.56031892 -148.01023897 97.82682192 -145.77734375 93.7890625 C-132.59798864 77.52517747 -107.41965388 73.94921816 -87.8125 71.3125 C-86.82113037 71.17859863 -85.82976074 71.04469727 -84.80834961 70.90673828 C-78.88367109 70.19954977 -73.14658541 69.96852687 -67.1796875 70.12109375 C-53.26914986 71.24792339 -53.26914986 71.24792339 -41.0390625 66.203125 C-38.49309783 63.14424943 -36.73569473 59.77460696 -35.06445312 56.17773438 C-33.61583284 53.21404333 -31.8124399 50.56060802 -29.96728516 47.83203125 C-28.06210195 45.00836035 -26.24868828 42.1297606 -24.42675781 39.25195312 C-22.95520674 36.92929963 -21.47422162 34.61285115 -19.9921875 32.296875 C-14.49873237 23.68461163 -9.15339279 15.00587159 -4.03295898 6.16601562 C-1.0904095 1.0904095 -1.0904095 1.0904095 0 0 Z " fill="#010101" transform="translate(272,184)"/>
<path d="M0 0 C0.99 0 1.98 0 3 0 C1.5936712 4.51772905 -0.19199092 8.74742763 -2.23828125 13.00390625 C-2.89454335 14.38557368 -3.55079282 15.76724711 -4.20703125 17.14892578 C-4.72257568 18.2293515 -4.72257568 18.2293515 -5.24853516 19.331604 C-13.09202572 35.77764713 -20.59974055 52.34941625 -28 69 C-16.12 68.67 -4.24 68.34 8 68 C11.86102703 60.56677973 11.86102703 60.56677973 15.71826172 53.1315918 C16.20053223 52.20515869 16.68280273 51.27872559 17.1796875 50.32421875 C17.67194824 49.37635498 18.16420898 48.42849121 18.67138672 47.4519043 C20 45 20 45 22 42 C22.99 42 23.98 42 25 42 C24.39368083 45.96149465 23.15202596 48.98723529 21.27734375 52.51953125 C20.47006836 54.0519043 20.47006836 54.0519043 19.64648438 55.61523438 C18.80053711 57.19788086 18.80053711 57.19788086 17.9375 58.8125 C17.36966797 59.88693359 16.80183594 60.96136719 16.21679688 62.06835938 C14.81685582 64.71530675 13.41109888 67.35898899 12 70 C12.55461914 69.99476318 13.10923828 69.98952637 13.68066406 69.98413086 C16.20376443 69.96328969 18.72684664 69.95031718 21.25 69.9375 C22.12269531 69.92912109 22.99539063 69.92074219 23.89453125 69.91210938 C24.73886719 69.90888672 25.58320313 69.90566406 26.453125 69.90234375 C27.22817383 69.89710693 28.00322266 69.89187012 28.80175781 69.88647461 C31 70 31 70 32.9465332 70.62133789 C35.87709243 71.16173705 37.6550588 70.26144992 40.40234375 69.15625 C41.97665161 68.52819458 41.97665161 68.52819458 43.58276367 67.88745117 C44.68982666 67.42959229 45.79688965 66.9717334 46.9375 66.5 C48.62806519 65.81031128 48.62806519 65.81031128 50.3527832 65.10668945 C67.71332601 58.38888185 67.71332601 58.38888185 81 46 C81.43027777 42.62949083 81.49122365 40.75916382 79.625 37.875 C63.38029067 26.27163619 37.40283622 27.20621668 18.5625 29.8125 C12.17807621 31.02655931 6.02494852 32.4511053 0.625 36.1875 C-2 38 -2 38 -5 38 C-3.16832434 33.38652815 -0.4287445 32.22593318 3.94262695 30.24658203 C13.88780964 26.19163491 24.0252169 25.51630521 34.62817383 25.60888672 C36.80028804 25.62490992 38.97052131 25.60897649 41.14257812 25.58984375 C55.59882456 25.56830763 74.06164553 26.41449567 85 37 C86.63023814 40.26047629 86.4673535 42.37801035 86 46 C73.86859964 67.47643667 33.99389803 75.74265613 12 82 C14.17105566 84.17105566 14.97212982 84.41316123 17.8671875 85.078125 C18.65988037 85.26624756 19.45257324 85.45437012 20.26928711 85.64819336 C21.12917236 85.84678955 21.98905762 86.04538574 22.875 86.25 C30.80706686 88.15492549 38.61538055 90.30755174 46.41430664 92.69604492 C52.52559668 94.56601969 58.66049428 96.33160425 64.8125 98.0625 C71.15653073 99.86225416 77.4782994 101.71095131 83.75 103.75 C85.53664063 104.33007812 85.53664063 104.33007812 87.359375 104.921875 C90 106 90 106 91 108 C82.25249354 106.44776225 73.81201049 104.12683546 65.3125 101.5625 C53.55911656 98.01923214 41.7659613 94.63455941 29.94467163 91.32492065 C27.98381421 90.77560583 26.02338316 90.22476673 24.06338501 89.6723938 C21.29336691 88.89214879 18.52193126 88.11716686 15.75 87.34375 C14.91055344 87.10663803 14.07110687 86.86952606 13.20622253 86.62522888 C10.05728333 85.75224449 7.28428583 85 4 85 C-2.5171306 97.91711144 -8.92247884 110.86976805 -15 124 C-15.99 124 -16.98 124 -18 124 C-15.425744 115.17257043 -11.35823721 107.15942153 -7.3125 98.9375 C-6.60300307 97.48527634 -5.8940144 96.03280426 -5.18554688 94.58007812 C-3.46287943 91.05049308 -1.73336237 87.52434431 0 84 C-0.99 83.67 -1.98 83.34 -3 83 C-3 82.01 -3 81.02 -3 80 C-1.35 80 0.3 80 2 80 C3.32 77.36 4.64 74.72 6 72 C-5.88 71.67 -17.76 71.34 -30 71 C-30.99 73.97 -31.98 76.94 -33 80 C-33.83900388 82.1933603 -34.69175602 84.38154565 -35.5625 86.5625 C-38.36653189 93.81751021 -40.3262459 100.17009834 -40 108 C-41.98 107.01 -41.98 107.01 -44 106 C-44.39281441 99.41280457 -43.15050787 94.60414859 -40.75 88.5 C-40.44964844 87.69691406 -40.14929688 86.89382813 -39.83984375 86.06640625 C-37.8600477 80.86838853 -35.5593354 75.93747891 -33 71 C-36.73716095 70.69367533 -38.56021243 70.65982303 -42 72 C-45.66612941 75.50762172 -48.71071482 79.37330861 -51.77783203 83.40527344 C-63.22166122 98.33757313 -78.08653805 112.44831716 -96 119 C-96.7940625 119.31582031 -97.588125 119.63164062 -98.40625 119.95703125 C-109.16217415 123.78097181 -121.40706812 123.05990911 -132 119 C-138.10254421 115.90575223 -144.30117507 112.55428911 -147 106 C-147.89841776 101.56031892 -148.01023897 97.82682192 -145.77734375 93.7890625 C-132.59798864 77.52517747 -107.41965388 73.94921816 -87.8125 71.3125 C-86.82113037 71.17859863 -85.82976074 71.04469727 -84.80834961 70.90673828 C-78.88367109 70.19954977 -73.14658541 69.96852687 -67.1796875 70.12109375 C-53.26914986 71.24792339 -53.26914986 71.24792339 -41.0390625 66.203125 C-38.49309783 63.14424943 -36.73569473 59.77460696 -35.06445312 56.17773438 C-33.61583284 53.21404333 -31.8124399 50.56060802 -29.96728516 47.83203125 C-28.06210195 45.00836035 -26.24868828 42.1297606 -24.42675781 39.25195312 C-22.95520674 36.92929963 -21.47422162 34.61285115 -19.9921875 32.296875 C-14.49873237 23.68461163 -9.15339279 15.00587159 -4.03295898 6.16601562 C-1.0904095 1.0904095 -1.0904095 1.0904095 0 0 Z M-140.3125 91.8125 C-142.88220726 94.64111983 -143.92981966 96.28416052 -144.3125 100.1875 C-143.94670238 104.65023091 -142.9789504 107.69510846 -140 111 C-129.5761434 118.66408344 -118.45955622 121.14457264 -105.70703125 119.6015625 C-81.16322887 114.08974426 -60.8296037 93.1098708 -47 73 C-47 72.67 -47 72.34 -47 72 C-74.89818326 70.96511233 -118.62422356 70.78011902 -140.3125 91.8125 Z " fill="#E1E1E1" transform="translate(272,184)"/>
<path d="M0 0 C0.99 0.495 0.99 0.495 2 1 C-0.38735929 8.79427058 -3.62409419 16.05419267 -7.0625 23.4375 C-7.87557617 25.21157227 -7.87557617 25.21157227 -8.70507812 27.02148438 C-12.74455291 35.74455291 -12.74455291 35.74455291 -15 38 C-16.9490625 38.1546875 -16.9490625 38.1546875 -18.9375 38.3125 C-25.92285284 39.6960723 -29.67435126 46.08551238 -33.77783203 51.42138672 C-45.31397424 66.32204503 -60.04313392 80.4324425 -78 87 C-78.7940625 87.31582031 -79.588125 87.63164062 -80.40625 87.95703125 C-91.16217415 91.78097181 -103.40706812 91.05990911 -114 87 C-120.10254421 83.90575223 -126.30117507 80.55428911 -129 74 C-129.89841776 69.56031892 -130.01023897 65.82682192 -127.77734375 61.7890625 C-114.59798864 45.52517747 -89.41965388 41.94921816 -69.8125 39.3125 C-68.82113037 39.17859863 -67.82976074 39.04469727 -66.80834961 38.90673828 C-60.88367109 38.19954977 -55.14658541 37.96852687 -49.1796875 38.12109375 C-35.26914986 39.24792339 -35.26914986 39.24792339 -23.0390625 34.203125 C-20.50810167 31.15993093 -18.75710332 27.8168563 -17.09521484 24.23925781 C-15.52162602 21.02192462 -13.57418879 18.0960917 -11.60229492 15.11132812 C-10.64456659 13.66151958 -9.70464216 12.19972882 -8.78637695 10.72460938 C-6.21542369 6.61265511 -3.57012317 3.28860808 0 0 Z M-122.3125 59.8125 C-124.88220726 62.64111983 -125.92981966 64.28416052 -126.3125 68.1875 C-125.94670238 72.65023091 -124.9789504 75.69510846 -122 79 C-111.5761434 86.66408344 -100.45955622 89.14457264 -87.70703125 87.6015625 C-63.16322887 82.08974426 -42.8296037 61.1098708 -29 41 C-29 40.67 -29 40.34 -29 40 C-56.89818326 38.96511233 -100.62422356 38.78011902 -122.3125 59.8125 Z " fill="#E9E9E9" transform="translate(254,216)"/>
<path d="M0 0 C0.99 0 1.98 0 3 0 C1.58338266 4.55161153 -0.21949523 8.81717813 -2.2734375 13.109375 C-2.75376938 14.1241114 -2.75376938 14.1241114 -3.24380493 15.15934753 C-3.92967004 16.60762787 -4.61699734 18.0552165 -5.30566406 19.50216675 C-6.7493885 22.53699582 -8.1842128 25.5760012 -9.6194458 28.61485291 C-10.71012598 30.92406308 -11.80180064 33.23280128 -12.89355469 35.54150391 C-15.94563756 41.99917327 -18.98360726 48.46306489 -22 54.9375 C-22.50966309 56.0193457 -23.01932617 57.10119141 -23.54443359 58.21582031 C-24.00414551 59.20549805 -24.46385742 60.19517578 -24.9375 61.21484375 C-25.53884766 62.50056274 -25.53884766 62.50056274 -26.15234375 63.81225586 C-27.180643 66.07519096 -27.180643 66.07519096 -27 69 C-15.78 69.33 -4.56 69.66 7 70 C7 70.33 7 70.66 7 71 C-5.21 71 -17.42 71 -30 71 C-30.99 73.97 -31.98 76.94 -33 80 C-33.83900388 82.1933603 -34.69175602 84.38154565 -35.5625 86.5625 C-38.36653189 93.81751021 -40.3262459 100.17009834 -40 108 C-41.32 107.34 -42.64 106.68 -44 106 C-44.39281441 99.41280457 -43.15050787 94.60414859 -40.75 88.5 C-40.44964844 87.69691406 -40.14929688 86.89382813 -39.83984375 86.06640625 C-37.8600477 80.86838853 -35.5593354 75.93747891 -33 71 C-34.98 71 -36.96 71 -39 71 C-39 70.67 -39 70.34 -39 70 C-37.91630127 69.79528076 -36.83260254 69.59056152 -35.71606445 69.37963867 C-31.86969354 68.34127266 -31.86969354 68.34127266 -30.04370117 65.3137207 C-29.54845947 64.19570068 -29.05321777 63.07768066 -28.54296875 61.92578125 C-28.26906815 61.3237236 -27.99516754 60.72166595 -27.71296692 60.10136414 C-26.84714592 58.18144218 -26.01782528 56.24799522 -25.1875 54.3125 C-24.61223347 53.03090791 -24.03477855 51.75029575 -23.45507812 50.47070312 C-20.88479973 44.72203133 -18.63088106 39.08312365 -17 33 C-18.485 33.495 -18.485 33.495 -20 34 C-18.68519522 30.47704255 -17.13025928 27.38472707 -15.13671875 24.19921875 C-14.30043945 22.85633789 -14.30043945 22.85633789 -13.44726562 21.48632812 C-12.86654297 20.56271484 -12.28582031 19.63910156 -11.6875 18.6875 C-11.11837891 17.77548828 -10.54925781 16.86347656 -9.96289062 15.92382812 C-8.84232419 14.12912069 -7.71726623 12.33720863 -6.58740234 10.54833984 C-5.55855949 8.89668471 -4.55204317 7.23082609 -3.57275391 5.54931641 C-3.14269043 4.8176123 -2.71262695 4.0859082 -2.26953125 3.33203125 C-1.71616089 2.36293823 -1.71616089 2.36293823 -1.15161133 1.37426758 C-0.77157959 0.92075928 -0.39154785 0.46725098 0 0 Z " fill="#F0F0F0" transform="translate(272,184)"/>
<path d="M0 0 C2.17211421 0.0160232 4.34234748 0.00008977 6.5144043 -0.01904297 C20.97065073 -0.04057909 39.4334717 0.80560895 50.37182617 11.39111328 C52.00206431 14.65158957 51.83917967 16.76912363 51.37182617 20.39111328 C43.54429927 34.24832522 22.48506072 41.2282446 8.37182617 46.39111328 C6.71254941 46.75947387 5.04700748 47.10361291 3.37182617 47.39111328 C3.37182617 46.40111328 3.37182617 45.41111328 3.37182617 44.39111328 C4.04125244 44.11960449 4.71067871 43.8480957 5.40039062 43.56835938 C8.49780303 42.30762636 11.59103749 41.03692876 14.68432617 39.76611328 C16.26310547 39.12609375 16.26310547 39.12609375 17.8737793 38.47314453 C34.04216328 32.08828824 34.04216328 32.08828824 46.37182617 20.39111328 C46.80210394 17.02060411 46.86304982 15.1502771 44.99682617 12.26611328 C28.75211684 0.66274947 2.77466239 1.59732996 -16.06567383 4.20361328 C-22.45009762 5.41767259 -28.60322531 6.84221858 -34.00317383 10.57861328 C-36.62817383 12.39111328 -36.62817383 12.39111328 -39.62817383 12.39111328 C-37.79649817 7.77764143 -35.05691833 6.61704646 -30.68554688 4.63769531 C-20.74036419 0.58274819 -10.60295693 -0.09258151 0 0 Z " fill="#E9E9E9" transform="translate(306.628173828125,209.60888671875)"/>
<path d="M0 0 C0.66 0.33 1.32 0.66 2 1 C-0.38735929 8.79427058 -3.62409419 16.05419267 -7.0625 23.4375 C-7.60455078 24.62021484 -8.14660156 25.80292969 -8.70507812 27.02148438 C-12.74455291 35.74455291 -12.74455291 35.74455291 -15 38 C-16.98828125 38.52734375 -16.98828125 38.52734375 -19.3125 38.9375 C-23.06338179 39.69372617 -25.83992361 40.75736514 -29 43 C-29.33 42.34 -29.66 41.68 -30 41 C-29.67 40.34 -29.34 39.68 -29 39 C-33.62 39 -38.24 39 -43 39 C-43 38.67 -43 38.34 -43 38 C-41.45892578 38.15275391 -41.45892578 38.15275391 -39.88671875 38.30859375 C-32.20246201 38.72321833 -32.20246201 38.72321833 -25.33984375 35.75439453 C-22.10984039 32.30798095 -19.70388135 28.29824093 -17.32080078 24.23925781 C-15.49201421 21.13877159 -13.53344378 18.12876012 -11.5715332 15.11132812 C-10.63114942 13.65750274 -9.70313594 12.1955744 -8.78979492 10.72460938 C-6.21379002 6.61556023 -3.57062253 3.28906807 0 0 Z " fill="#EAEAEA" transform="translate(254,216)"/>
<path d="M0 0 C3.07492339 0.54426144 5.98755027 1.20640361 9 2 C9.90621094 2.22671387 10.81242187 2.45342773 11.74609375 2.68701172 C14.66842613 3.42110241 17.5844362 4.17700143 20.5 4.9375 C21.97146484 5.31551758 21.97146484 5.31551758 23.47265625 5.70117188 C28.71619263 7.06616703 33.8642509 8.56570289 38.98925781 10.32348633 C41.83883133 11.28222458 44.72653856 12.07809941 47.625 12.875 C52.88614244 14.36670887 58.11177964 15.93642196 63.3125 17.625 C64.56675781 18.02976562 65.82101562 18.43453125 67.11328125 18.8515625 C70 20 70 20 71 22 C60.83656834 20.19650751 51.0719997 17.31765421 41.20263672 14.34375 C31.601425 11.45561276 21.96740066 8.70246316 12.3125 6 C11.59370667 5.79864441 10.87491333 5.59728882 10.13433838 5.38983154 C6.09028147 4.25729127 2.04549339 3.12740032 -2 2 C-1.34 1.34 -0.68 0.68 0 0 Z " fill="#D5D5D5" transform="translate(292,270)"/>
<path d="M0 0 C0 0.33 0 0.66 0 1 C-0.56468994 1.0093457 -1.12937988 1.01869141 -1.71118164 1.02832031 C-23.77020122 1.47693361 -46.52589407 3.20995868 -67.91357422 8.95629883 C-69.859375 9.4609375 -69.859375 9.4609375 -73 10 C-73.99 9.34 -74.98 8.68 -76 8 C-63.4159543 4.43475525 -50.96763846 1.71895108 -38 0 C-37.03578125 -0.13277344 -36.0715625 -0.26554688 -35.078125 -0.40234375 C-23.41998147 -1.7929393 -11.65590965 -0.99199231 0 0 Z " fill="#C8C8C8" transform="translate(225,255)"/>
<path d="M0 0 C1.26147489 3.78442466 0.55291323 4.53984586 -1.16796875 8.04296875 C-1.89016602 9.53086914 -1.89016602 9.53086914 -2.62695312 11.04882812 C-3.14193359 12.08458984 -3.65691406 13.12035156 -4.1875 14.1875 C-4.9309668 15.71213867 -4.9309668 15.71213867 -5.68945312 17.26757812 C-8.4238554 22.86280814 -11.20693198 28.43386205 -14 34 C-16.64 34 -19.28 34 -22 34 C-18.35443241 27.31964055 -14.11675872 21.0633153 -9.875 14.75 C-9.14667969 13.66203125 -8.41835937 12.5740625 -7.66796875 11.453125 C-6.32380937 9.44558197 -4.97870083 7.43867388 -3.63232422 5.43261719 C-2.41854905 3.62375452 -1.20833443 1.81250164 0 0 Z " fill="#0C0C0C" transform="translate(254,219)"/>
<path d="M0 0 C-3.08214367 2.50837945 -6.19463897 4.06666111 -9.8125 5.6875 C-15.46413293 8.48218752 -19.82698877 11.44183408 -23 17 C-23.89654772 22.19997679 -22.81084733 25.5829542 -20 30 C-17.95053601 31.85315257 -17.95053601 31.85315257 -16 33 C-16.33 33.99 -16.66 34.98 -17 36 C-18.2989839 35.09373216 -19.58893167 34.17450463 -20.875 33.25 C-21.95394531 32.48429687 -21.95394531 32.48429687 -23.0546875 31.703125 C-25.79412591 29.30474117 -26.75935445 27.2522087 -27.44140625 23.703125 C-27.6847685 18.77307681 -27.30372478 15.63926326 -24.125 11.75 C-17.95266724 5.55257646 -9.01965466 -0.51540884 0 0 Z " fill="#EAEAEA" transform="translate(152,264)"/>
<path d="M0 0 C1.31597979 3.01230056 0.93134706 4.20338139 -0.14453125 7.390625 C-0.69131561 8.68102274 -1.24776776 9.96735548 -1.8125 11.25 C-5.04179617 18.95589642 -7.35107951 25.57409186 -7 34 C-8.32 33.34 -9.64 32.68 -11 32 C-11.41587097 25.31525929 -10.07283286 20.4375775 -7.625 14.25 C-7.30789062 13.41339844 -6.99078125 12.57679688 -6.6640625 11.71484375 C-2.69586723 1.34793362 -2.69586723 1.34793362 0 0 Z " fill="#E7E7E7" transform="translate(239,258)"/>
<path d="M0 0 C5.64416796 1.83763608 5.64416796 1.83763608 8.234375 3.01953125 C11.65678939 4.23284483 14.96682239 4.58591599 18.5625 4.8125 C19.26270264 4.85818115 19.96290527 4.9038623 20.68432617 4.95092773 C26.32064688 5.20318534 31.23492461 4.35532664 36.64453125 2.69140625 C39 2 39 2 42 2 C42 2.66 42 3.32 42 4 C29.15072708 9.27149658 17.17067388 9.44459273 4 5 C2.65168733 4.36417363 1.31173701 3.70821482 0 3 C0 2.01 0 1.02 0 0 Z " fill="#CECECE" transform="translate(136,298)"/>
<path d="M0 0 C2.24658203 -0.34057617 2.24658203 -0.34057617 5.0078125 -0.29296875 C5.99394531 -0.28330078 6.98007812 -0.27363281 7.99609375 -0.26367188 C9.02863281 -0.23853516 10.06117188 -0.21339844 11.125 -0.1875 C12.68541016 -0.16719727 12.68541016 -0.16719727 14.27734375 -0.14648438 C16.85207627 -0.11105228 19.4257833 -0.06165221 22 0 C19.28932269 1.80711821 17.46181438 2.59731014 14.40234375 3.5078125 C13.07686523 3.90419922 13.07686523 3.90419922 11.72460938 4.30859375 C10.80486328 4.57800781 9.88511719 4.84742188 8.9375 5.125 C8.01388672 5.40214844 7.09027344 5.67929687 6.13867188 5.96484375 C-0.72371459 8 -0.72371459 8 -3 8 C-2.45276317 4.62537285 -1.9451 2.91765 0 0 Z " fill="#080808" transform="translate(282,256)"/>
<path d="M0 0 C-1.75763672 0.16435547 -1.75763672 0.16435547 -3.55078125 0.33203125 C-20.35507061 1.81473406 -20.35507061 1.81473406 -35.34375 9.01171875 C-37 10 -37 10 -40 10 C-38.15287443 5.3476142 -35.35554655 4.21624219 -30.9765625 2.171875 C-21.93365653 -1.3883242 -9.0096282 -5.22267131 0 0 Z " fill="#CACACA" transform="translate(307,212)"/>
<path d="M0 0 C1 3 1 3 0 8 C11.22 8.33 22.44 8.66 34 9 C34 9.33 34 9.66 34 10 C21.79 10 9.58 10 -3 10 C-3.66 11.32 -4.32 12.64 -5 14 C-5.66 14 -6.32 14 -7 14 C-6.67 12.68 -6.34 11.36 -6 10 C-7.98 10 -9.96 10 -12 10 C-12 9.67 -12 9.34 -12 9 C-10.9275 8.79375 -9.855 8.5875 -8.75 8.375 C-4.27101128 6.73270414 -3.26251724 5.089935 -1 1 C-0.67 0.67 -0.34 0.34 0 0 Z " fill="#F9F9F9" transform="translate(245,245)"/>
<path d="M0 0 C3.0732545 0.54470573 5.98759137 1.21057899 9 2 C9.94343262 2.23203125 10.88686523 2.4640625 11.85888672 2.703125 C14.89017288 3.44989885 17.91396961 4.22246577 20.9375 5 C21.97712891 5.26039063 23.01675781 5.52078125 24.08789062 5.7890625 C25.57385742 6.17191406 25.57385742 6.17191406 27.08984375 6.5625 C27.98566162 6.79066406 28.88147949 7.01882813 29.80444336 7.25390625 C32 8 32 8 34 10 C29.98244413 11.6114863 26.56227824 10.30448095 22.609375 9.12890625 C21.90476135 8.9277269 21.20014771 8.72654755 20.47418213 8.51927185 C18.23001395 7.87622932 15.9900924 7.21958416 13.75 6.5625 C12.22682261 6.12344557 10.70338756 5.68528397 9.1796875 5.24804688 C5.45005892 4.17569187 1.72417922 3.09112251 -2 2 C-1.34 1.34 -0.68 0.68 0 0 Z " fill="#CDCDCD" transform="translate(292,270)"/>
<path d="M0 0 C0 0.99 0 1.98 0 3 C-2.9770577 3.96496793 -5.95700441 4.92070878 -8.9375 5.875 C-9.76830078 6.14441406 -10.59910156 6.41382813 -11.45507812 6.69140625 C-16.92810512 8.43766389 -22.37482684 9.83069054 -28 11 C-28.33 10.01 -28.66 9.02 -29 8 C-24.73128529 6.65981695 -20.45969936 5.32902891 -16.1875 4 C-14.97255859 3.6184375 -13.75761719 3.236875 -12.50585938 2.84375 C-11.34248047 2.4828125 -10.17910156 2.121875 -8.98046875 1.75 C-7.90692139 1.41484375 -6.83337402 1.0796875 -5.72729492 0.734375 C-3 0 -3 0 0 0 Z " fill="#D5D5D5" transform="translate(310,255)"/>
<path d="M0 0 C0.66 0.33 1.32 0.66 2 1 C1.01 2.65 0.02 4.3 -1 6 C1.97 6.495 1.97 6.495 5 7 C5 7.33 5 7.66 5 8 C4.40832031 8.10957031 3.81664062 8.21914062 3.20703125 8.33203125 C-1.41345763 9.25914403 -5.0876779 10.22351335 -9 13 C-9.33 12.34 -9.66 11.68 -10 11 C-9.67 10.34 -9.34 9.68 -9 9 C-13.62 9 -18.24 9 -23 9 C-23 8.67 -23 8.34 -23 8 C-21.89140625 7.98582031 -20.7828125 7.97164062 -19.640625 7.95703125 C-18.17704216 7.91012154 -16.71350177 7.86187419 -15.25 7.8125 C-14.52039063 7.80669922 -13.79078125 7.80089844 -13.0390625 7.79492188 C-9.15740435 7.63612677 -7.40848872 7.42562331 -4.671875 4.57421875 C-4.12015625 3.72472656 -3.5684375 2.87523437 -3 2 C-2.01 1.34 -1.02 0.68 0 0 Z " fill="#F0F0F0" transform="translate(234,246)"/>
<path d="M0 0 C-3.08313433 2.49446906 -6.22406535 4.14035395 -9.8125 5.8125 C-13.68238383 7.69080947 -16.8934559 9.52577144 -20.0625 12.4375 C-21.031875 13.283125 -22.00125 14.12875 -23 15 C-23.99 14.67 -24.98 14.34 -26 14 C-20.20273201 6.82969485 -9.63537962 -0.89081812 0 0 Z " fill="#E3E3E3" transform="translate(152,264)"/>
<path d="M0 0 C0.66 0.66 1.32 1.32 2 2 C0.60689016 5.15679404 -0.81828457 8.29804877 -2.25 11.4375 C-2.84361328 12.78424805 -2.84361328 12.78424805 -3.44921875 14.15820312 C-3.84238281 15.01220703 -4.23554688 15.86621094 -4.640625 16.74609375 C-4.99672852 17.53685303 -5.35283203 18.3276123 -5.71972656 19.14233398 C-7 21 -7 21 -9.14746094 21.76586914 C-9.75879883 21.84313232 -10.37013672 21.92039551 -11 22 C-9.50888944 17.20607956 -7.6169426 12.72696897 -5.5 8.1875 C-5.19191406 7.50751953 -4.88382813 6.82753906 -4.56640625 6.12695312 C-2.24018872 1.12009436 -2.24018872 1.12009436 0 0 Z " fill="#E6E6E6" transform="translate(254,225)"/>
<path d="M0 0 C-3.06928264 3.06928264 -6.78336789 3.33188831 -10.9375 4.25 C-11.76185547 4.44851563 -12.58621094 4.64703125 -13.43554688 4.8515625 C-14.62567383 5.11839844 -14.62567383 5.11839844 -15.83984375 5.390625 C-16.92833618 5.6386084 -16.92833618 5.6386084 -18.03881836 5.89160156 C-20 6 -20 6 -23 4 C-15.1977858 1.51394597 -8.26405949 -0.56993514 0 0 Z " fill="#D2D2D2" transform="translate(172,259)"/>
<path d="M0 0 C0.66 0.33 1.32 0.66 2 1 C0.59980125 5.20059624 -2.36825877 6.19051525 -6.0625 8.1875 C-6.72572266 8.55552734 -7.38894531 8.92355469 -8.07226562 9.30273438 C-9.71027457 10.21012062 -11.35456221 11.10615573 -13 12 C-13.33 11.01 -13.66 10.02 -14 9 C-13.07316406 8.43410156 -12.14632812 7.86820312 -11.19140625 7.28515625 C-9.98172588 6.54434424 -8.77209291 5.80345482 -7.5625 5.0625 C-6.95083984 4.68931641 -6.33917969 4.31613281 -5.70898438 3.93164062 C-2.68972694 2.18538519 -2.68972694 2.18538519 0 0 Z " fill="#DBDBDB" transform="translate(192,290)"/>
<path d="M0 0 C-0.33 4.62 -0.66 9.24 -1 14 C-2.32 13.34 -3.64 12.68 -5 12 C-5.125 4.375 -5.125 4.375 -4 1 C-2 0 -2 0 0 0 Z " fill="#DDDDDD" transform="translate(233,278)"/>
<path d="M0 0 C-1.5005894 3.00117879 -3.83882403 3.59903432 -6.8125 5.0625 C-7.87082031 5.58972656 -8.92914063 6.11695313 -10.01953125 6.66015625 C-12.39351834 7.72736146 -14.46239975 8.50231085 -17 9 C-15.54601078 5.19850864 -13.80320598 4.00635493 -10.1875 2.25 C-9.33542969 1.82203125 -8.48335938 1.3940625 -7.60546875 0.953125 C-4.87849681 -0.04444794 -2.87779864 -0.18599776 0 0 Z " fill="#DFDFDF" transform="translate(284,213)"/>
<path d="M0 0 C6.68993219 0.53951066 12.63460728 1.88706171 19 4 C19 4.66 19 5.32 19 6 C12.31816637 4.9559635 6.2534035 3.5957524 0 1 C0 0.67 0 0.34 0 0 Z " fill="#DDDDDD" transform="translate(324,280)"/>
<path d="M0 0 C-0.33 0.66 -0.66 1.32 -1 2 C-10.405 0.515 -10.405 0.515 -20 -1 C-20 -1.33 -20 -1.66 -20 -2 C-13.50597706 -3.5796272 -5.65859343 -3.77239562 0 0 Z " fill="#E4E4E4" transform="translate(342,214)"/>
<path d="M0 0 C0.6875 1.75 0.6875 1.75 1 4 C-0.7573799 7.07541482 -1.57945994 7.85981998 -5 9 C-3.90931332 5.22454612 -3.0916909 2.52956528 0 0 Z " fill="#E0E0E0" transform="translate(248,238)"/>
<path d="M0 0 C3.4375 0.8125 3.4375 0.8125 7 2 C7.33 2.99 7.66 3.98 8 5 C3.545 4.01 3.545 4.01 -1 3 C-0.67 2.01 -0.34 1.02 0 0 Z " fill="#CBCBCB" transform="translate(343,284)"/>
<path d="M0 0 C0.66 0.33 1.32 0.66 2 1 C2 1.66 2 2.32 2 3 C-0.33366933 5.01178391 -2.04785514 6.01595171 -5 7 C-3.75023244 3.34683329 -3.32901247 2.21934164 0 0 Z " fill="#DFDFDF" transform="translate(254,216)"/>
<path d="M0 0 C-3.96 1.98 -3.96 1.98 -8 4 C-8 3.01 -8 2.02 -8 1 C-4.59449725 -1.06762667 -4.18836538 -1.04709135 0 0 Z " fill="#E5E5E5" transform="translate(186,298)"/>
<path d="M0 0 C1.2077558 3.62326739 0.54311128 4.64146369 -1 8 C-1.99 7.67 -2.98 7.34 -4 7 C-2.92598892 4.08482708 -2.22189824 2.22189824 0 0 Z " fill="#F1F1F1" transform="translate(245,245)"/>
<path d="M0 0 C0 0.99 0 1.98 0 3 C-3.63 2.67 -7.26 2.34 -11 2 C-11 1.67 -11 1.34 -11 1 C-7.27569643 0.30710631 -3.78916254 -0.11144596 0 0 Z " fill="#C3C3C3" transform="translate(333,211)"/>
<path d="M0 0 C1 3 1 3 -0.4375 6.1875 C-1.2109375 7.5796875 -1.2109375 7.5796875 -2 9 C-2.66 8.67 -3.32 8.34 -4 8 C-2.87548273 5.0280615 -1.77706209 2.66559313 0 0 Z " fill="#323232" transform="translate(254,219)"/>
</svg>
